<svg xmlns="http://www.w3.org/2000/svg" width="154" height="50" viewBox="0 0 154 50" fill="none"><path d="M2.7112 47.9372C1.88743 47.9372 1.23113 47.6928 0.737775 47.2085C0.244418 46.7241 0 46.009 0 45.0721V43.4834C0 42.5465 0.244418 41.8358 0.737775 41.347C1.23113 40.8627 1.88743 40.6183 2.7112 40.6183C3.53497 40.6183 4.15055 40.8491 4.58506 41.3063C5.01505 41.7634 5.23231 42.388 5.23231 43.1801V43.2299H4.58958V43.162C4.58958 42.5872 4.4357 42.1165 4.13244 41.7498C3.82918 41.3832 3.35393 41.2022 2.7112 41.2022C2.06848 41.2022 1.55249 41.4013 1.1904 41.7951C0.823773 42.1889 0.642728 42.7456 0.642728 43.4607V45.0902C0.642728 45.8053 0.823773 46.362 1.1904 46.7558C1.55702 47.1496 2.06396 47.3488 2.7112 47.3488C3.35845 47.3488 3.82918 47.1677 4.13244 46.8011C4.4357 46.4345 4.58958 45.9637 4.58958 45.3889V45.2396H5.23231V45.3708C5.23231 46.1629 5.01505 46.783 4.58506 47.2447C4.15507 47.7018 3.53045 47.9326 2.7112 47.9326" fill="white"></path><path d="M7.45862 47.7968V40.7676H10.2106C10.6451 40.7676 11.0298 40.84 11.3602 40.9894C11.6906 41.1387 11.9531 41.3515 12.1433 41.6276C12.3334 41.9037 12.4284 42.2431 12.4284 42.6369V42.7365C12.4284 43.2117 12.3152 43.5874 12.0889 43.8545C11.8626 44.126 11.5911 44.3026 11.2833 44.3931V44.5153C11.5186 44.5198 11.7133 44.5967 11.8762 44.7371C12.0346 44.8774 12.1161 45.1037 12.1161 45.4115V47.8013H11.4734V45.4794C11.4734 45.2666 11.4145 45.0992 11.2969 44.986C11.1792 44.8729 11.0026 44.814 10.7673 44.814H8.09682V47.7968H7.4541H7.45862ZM8.10135 44.2301H10.1517C10.6722 44.2301 11.0796 44.1079 11.3602 43.8635C11.6454 43.6191 11.7857 43.2706 11.7857 42.8134V42.7636C11.7857 42.3065 11.6454 41.958 11.3693 41.7136C11.0932 41.4691 10.6858 41.3469 10.1472 41.3469H8.09682V44.2301H8.10135Z" fill="white"></path><path d="M14.6016 47.7968V40.7676H15.8598L17.9872 47.4166H18.1094L20.2367 40.7676H21.4905V47.7968H20.8704V41.1478H20.7482L18.6208 47.7968H17.4757L15.3439 41.1478H15.2262V47.7968H14.6016Z" fill="white"></path><path d="M29.547 47.9371C29.1125 47.9371 28.7142 47.833 28.3611 47.6293C28.0036 47.4257 27.7229 47.136 27.5102 46.7558C27.2975 46.3801 27.1934 45.932 27.1934 45.416V45.2938C27.1934 44.7778 27.2975 44.3297 27.5057 43.954C27.7139 43.5784 27.9945 43.2842 28.3566 43.0805C28.7142 42.8768 29.1125 42.7727 29.547 42.7727C29.9091 42.7727 30.2123 42.8225 30.4613 42.9175C30.7102 43.0126 30.9094 43.1393 31.0678 43.2887C31.2262 43.4381 31.3484 43.5965 31.4344 43.7639H31.5566V40.7631H32.1586V47.7923H31.5747V46.9006H31.4525C31.3122 47.1677 31.0904 47.4075 30.7962 47.6203C30.4975 47.833 30.0811 47.9371 29.547 47.9371ZM29.6873 47.394C30.244 47.394 30.6921 47.2174 31.0361 46.8599C31.3801 46.5023 31.5521 46.018 31.5521 45.3934V45.3119C31.5521 44.6873 31.3801 44.1985 31.0361 43.8454C30.6921 43.4924 30.2395 43.3113 29.6873 43.3113C29.1351 43.3113 28.687 43.4878 28.343 43.8454C27.9945 44.1985 27.8225 44.6873 27.8225 45.3119V45.3934C27.8225 46.018 27.999 46.5068 28.343 46.8599C28.6915 47.2129 29.1396 47.394 29.6873 47.394Z" fill="white"></path><path d="M36.9783 47.9371C36.4759 47.9371 36.0369 47.833 35.6657 47.6203C35.2946 47.4075 35.0049 47.1133 34.7967 46.7331C34.5885 46.3529 34.4844 45.9139 34.4844 45.416V45.2938C34.4844 44.7914 34.5885 44.3524 34.7967 43.9721C35.0049 43.5919 35.29 43.2978 35.6567 43.0895C36.0233 42.8768 36.4397 42.7727 36.9059 42.7727C37.3721 42.7727 37.7659 42.8678 38.1144 43.0579C38.4674 43.248 38.7435 43.5241 38.9427 43.8816C39.1418 44.2392 39.2459 44.6692 39.2459 45.1625V45.4839H35.0864C35.1045 46.0949 35.29 46.5657 35.6431 46.8961C35.9961 47.2265 36.4397 47.394 36.9738 47.394C37.4309 47.394 37.784 47.2899 38.0329 47.0817C38.2819 46.8734 38.4765 46.62 38.6123 46.3167L39.1554 46.5566C39.0558 46.7784 38.9155 46.9957 38.739 47.2039C38.5625 47.4121 38.3316 47.5886 38.051 47.7244C37.7704 47.8602 37.4128 47.9281 36.9783 47.9281M35.0999 44.9634H38.6349C38.6077 44.4338 38.4357 44.0265 38.1234 43.7413C37.8066 43.4562 37.4038 43.3159 36.9059 43.3159C36.408 43.3159 36.0142 43.4607 35.6929 43.7413C35.3715 44.0265 35.1724 44.4338 35.0999 44.9634Z" fill="white"></path><path d="M47.1676 47.9371C46.6923 47.9371 46.2669 47.833 45.8957 47.6293C45.5246 47.4257 45.2304 47.1315 45.0176 46.7513C44.8049 46.371 44.6963 45.923 44.6963 45.407V45.3074C44.6963 44.7869 44.8049 44.3343 45.0176 43.9541C45.2304 43.5784 45.5246 43.2842 45.8957 43.0805C46.2669 42.8768 46.6923 42.7727 47.1676 42.7727C47.6428 42.7727 48.0321 42.8632 48.358 43.0397C48.6839 43.2163 48.9374 43.4471 49.1229 43.7323C49.3085 44.0174 49.4217 44.3162 49.4714 44.633L48.8785 44.7552C48.8468 44.4927 48.7608 44.2528 48.6296 44.0355C48.4938 43.8183 48.3082 43.6463 48.0683 43.515C47.8284 43.3838 47.5297 43.3204 47.1766 43.3204C46.8236 43.3204 46.5022 43.4018 46.2216 43.5648C45.941 43.7277 45.7192 43.9586 45.5517 44.2573C45.3888 44.556 45.3073 44.9091 45.3073 45.3164V45.3979C45.3073 45.8053 45.3888 46.1583 45.5517 46.457C45.7147 46.7558 45.941 46.9866 46.2216 47.1496C46.5022 47.3125 46.8191 47.394 47.1766 47.394C47.7107 47.394 48.1226 47.2537 48.4033 46.9776C48.6839 46.7015 48.8604 46.362 48.9238 45.9592L49.5167 46.0814C49.4579 46.3982 49.3311 46.6969 49.141 46.9821C48.9509 47.2672 48.6929 47.4981 48.367 47.6746C48.0412 47.8511 47.6474 47.9416 47.1766 47.9416" fill="white"></path><path d="M54.025 47.9371C53.5271 47.9371 53.0971 47.833 52.726 47.6203C52.3548 47.4075 52.0652 47.1133 51.8615 46.7377C51.6578 46.3575 51.5537 45.9184 51.5537 45.416V45.2938C51.5537 44.7914 51.6578 44.3524 51.8615 43.9721C52.0652 43.5919 52.3548 43.2978 52.726 43.0895C53.0971 42.8768 53.5317 42.7727 54.025 42.7727C54.5184 42.7727 54.9529 42.8768 55.324 43.0895C55.6952 43.3023 55.9849 43.5965 56.1885 43.9721C56.3922 44.3524 56.4963 44.7914 56.4963 45.2938V45.416C56.4963 45.9184 56.3922 46.3575 56.1885 46.7377C55.9849 47.1179 55.6952 47.4121 55.324 47.6203C54.9529 47.833 54.5184 47.9371 54.025 47.9371ZM54.025 47.394C54.5998 47.394 55.057 47.2129 55.3919 46.8463C55.7269 46.4797 55.8943 45.9954 55.8943 45.3934V45.3119C55.8943 44.7099 55.7269 44.2256 55.3919 43.859C55.057 43.4924 54.5998 43.3113 54.025 43.3113C53.4502 43.3113 53.0021 43.4924 52.6626 43.859C52.3232 44.2256 52.1557 44.7099 52.1557 45.3119V45.3934C52.1557 45.9954 52.3232 46.4797 52.6626 46.8463C53.0021 47.2129 53.4547 47.394 54.025 47.394Z" fill="white"></path><path d="M61.4397 47.9371C60.9057 47.9371 60.4892 47.833 60.1905 47.6203C59.8918 47.4075 59.6745 47.1722 59.5342 46.9006H59.412V47.7923H58.8281V40.7631H59.4301V43.7639H59.5523C59.6383 43.5965 59.7605 43.4381 59.9189 43.2887C60.0774 43.1393 60.281 43.0126 60.53 42.9175C60.7789 42.818 61.0822 42.7727 61.4397 42.7727C61.8833 42.7727 62.2816 42.8768 62.6347 43.0805C62.9877 43.2842 63.2683 43.5784 63.4765 43.954C63.6847 44.3343 63.7889 44.7823 63.7889 45.2938V45.416C63.7889 45.932 63.6847 46.3801 63.472 46.7558C63.2593 47.136 62.9787 47.4257 62.6211 47.6293C62.2635 47.833 61.8697 47.9371 61.4352 47.9371M61.2994 47.394C61.8562 47.394 62.3043 47.2174 62.6482 46.8599C62.9922 46.5023 63.1642 46.018 63.1642 45.3934V45.3119C63.1642 44.6873 62.9922 44.1985 62.6482 43.8454C62.3043 43.4924 61.8516 43.3113 61.2994 43.3113C60.7472 43.3113 60.3037 43.4878 59.9551 43.8454C59.6066 44.1985 59.4346 44.6873 59.4346 45.3119V45.3934C59.4346 46.018 59.6066 46.5068 59.9551 46.8599C60.3037 47.2129 60.7518 47.394 61.2994 47.394Z" fill="white"></path><path d="M66.1191 47.7969V42.9176H66.703V43.5287H66.8252C66.9203 43.3069 67.0561 43.1485 67.2416 43.0489C67.4272 42.9493 67.6807 42.8995 68.0111 42.8995H68.5814V43.4608H67.9387C67.5721 43.4608 67.2733 43.5649 67.0561 43.7731C66.8343 43.9813 66.7257 44.3072 66.7257 44.7462V47.8014H66.1237L66.1191 47.7969Z" fill="white"></path><path d="M71.9354 47.9371C71.5959 47.9371 71.2836 47.8783 71.0075 47.7606C70.7314 47.6429 70.5096 47.4709 70.3512 47.2446C70.1883 47.0183 70.1113 46.7422 70.1113 46.4208C70.1113 46.0995 70.1928 45.8234 70.3512 45.6061C70.5096 45.3934 70.7314 45.2304 71.003 45.1218C71.2791 45.0132 71.5823 44.9634 71.9173 44.9634H73.7051V44.5741C73.7051 44.1803 73.592 43.8726 73.3657 43.6508C73.1394 43.429 72.8044 43.3204 72.3699 43.3204C71.9354 43.3204 71.6004 43.4245 71.3515 43.6372C71.1026 43.8499 70.9306 44.1306 70.8446 44.4881L70.2607 44.3161C70.3422 44.0265 70.4689 43.7685 70.6409 43.5376C70.8174 43.3068 71.0483 43.1212 71.3334 42.9854C71.6231 42.8496 71.9671 42.7772 72.3699 42.7772C72.9855 42.7772 73.4652 42.9402 73.8002 43.2615C74.1397 43.5829 74.3071 44.031 74.3071 44.6058V46.9775C74.3071 47.1767 74.4022 47.2808 74.5877 47.2808H75.0585V47.8013H74.4158C74.2076 47.8013 74.0446 47.738 73.9224 47.6157C73.8002 47.4935 73.7413 47.3215 73.7413 47.1088V47.0409H73.6418C73.5558 47.1903 73.4426 47.3306 73.3068 47.4709C73.171 47.6112 72.99 47.7244 72.7682 47.8104C72.5464 47.8964 72.2703 47.9416 71.9354 47.9416M71.9761 47.394C72.4921 47.394 72.9085 47.2401 73.2254 46.9278C73.5422 46.6154 73.7006 46.1764 73.7006 45.6061V45.4839H71.9218C71.5733 45.4839 71.2836 45.5608 71.0528 45.7102C70.8219 45.8596 70.7043 46.0949 70.7043 46.4072C70.7043 46.7195 70.8219 46.964 71.0618 47.136C71.3017 47.308 71.6004 47.3894 71.9716 47.3894" fill="white"></path><path d="M77.0049 47.7968V42.9176H77.5888V43.8228H77.711C77.8332 43.5603 78.0278 43.3295 78.3039 43.1258C78.58 42.9221 78.9783 42.818 79.4988 42.818C79.8564 42.818 80.1777 42.8904 80.4719 43.0398C80.7662 43.1891 81.0015 43.4109 81.1781 43.7097C81.3546 44.0084 81.4451 44.3795 81.4451 44.8321V47.8059H80.8431V44.8729C80.8431 44.3388 80.7073 43.9495 80.4403 43.7187C80.1732 43.4833 79.8157 43.3657 79.3676 43.3657C78.8652 43.3657 78.4487 43.5331 78.1138 43.8635C77.7789 44.194 77.6114 44.6964 77.6114 45.3663V47.8059H77.0094L77.0049 47.7968Z" fill="white"></path><path d="M86.1891 47.9371C85.7138 47.9371 85.2929 47.8375 84.9172 47.6293C84.5461 47.4257 84.2519 47.1315 84.0391 46.7512C83.8264 46.371 83.7178 45.923 83.7178 45.407V45.3074C83.7178 44.7823 83.8264 44.3343 84.0391 43.9541C84.2519 43.5739 84.5461 43.2842 84.9172 43.0805C85.2884 42.8768 85.7138 42.7727 86.1891 42.7727C86.6643 42.7727 87.0536 42.8632 87.3795 43.0397C87.7054 43.2163 87.9588 43.4471 88.1444 43.7323C88.33 44.0174 88.4431 44.3162 88.4884 44.633L87.8955 44.7552C87.8593 44.4927 87.7778 44.2528 87.6465 44.0355C87.5107 43.8183 87.3252 43.6463 87.0853 43.515C86.8454 43.3838 86.5467 43.3204 86.1891 43.3204C85.8315 43.3204 85.5147 43.4018 85.2341 43.5648C84.9534 43.7277 84.7316 43.9586 84.5642 44.2573C84.4012 44.556 84.3198 44.9091 84.3198 45.3164V45.3979C84.3198 45.8053 84.4012 46.1583 84.5642 46.457C84.7271 46.7558 84.9489 46.9866 85.2341 47.1496C85.5147 47.3125 85.8315 47.394 86.1891 47.394C86.7232 47.394 87.1351 47.2537 87.4157 46.9776C87.6963 46.7015 87.8728 46.362 87.9362 45.9592L88.5291 46.0814C88.4703 46.3982 88.3436 46.6969 88.1535 46.9821C87.9634 47.2672 87.7054 47.4981 87.3795 47.6746C87.0536 47.8511 86.6598 47.9416 86.1891 47.9416M86.2298 49.8246C86.0307 49.8246 85.8451 49.7929 85.6731 49.7295C85.5011 49.6661 85.3517 49.5847 85.2159 49.4851L85.4785 49.0822C85.5871 49.1637 85.7003 49.2316 85.827 49.2814C85.9492 49.3357 86.085 49.3629 86.2343 49.3629C86.3837 49.3629 86.4923 49.3357 86.5919 49.2769C86.687 49.218 86.7368 49.1275 86.7368 49.0008C86.7368 48.8876 86.6915 48.8016 86.601 48.7382C86.5104 48.6794 86.3882 48.6477 86.2343 48.6477H85.8723L85.9809 47.5705H86.4516L86.3837 48.2721C86.6462 48.2721 86.8544 48.34 87.0083 48.4667C87.1622 48.5979 87.2392 48.788 87.2392 49.0325C87.2392 49.2045 87.1939 49.3538 87.1034 49.467C87.0129 49.5847 86.8906 49.6707 86.7413 49.7295C86.5919 49.7883 86.4199 49.8155 86.2343 49.8155" fill="white"></path><path d="M92.3114 47.9371C91.9674 47.9371 91.6596 47.8783 91.3835 47.7606C91.1074 47.6429 90.8856 47.4709 90.7272 47.2446C90.5688 47.0183 90.4873 46.7422 90.4873 46.4208C90.4873 46.0995 90.5688 45.8234 90.7272 45.6061C90.8901 45.3934 91.1074 45.2304 91.379 45.1218C91.6551 45.0132 91.9583 44.9634 92.2933 44.9634H94.0811V44.5741C94.0811 44.1803 93.968 43.8726 93.7417 43.6508C93.5153 43.429 93.1804 43.3204 92.7459 43.3204C92.3114 43.3204 91.9764 43.4245 91.7275 43.6372C91.4786 43.8499 91.3065 44.1306 91.2205 44.4881L90.6367 44.3161C90.7181 44.0265 90.8449 43.7685 91.0169 43.5376C91.1934 43.3068 91.4197 43.1212 91.7094 42.9854C91.9991 42.8496 92.3431 42.7772 92.7459 42.7772C93.3615 42.7772 93.8367 42.9402 94.1762 43.2615C94.5156 43.5829 94.6831 44.031 94.6831 44.6058V46.9775C94.6831 47.1767 94.7782 47.2808 94.9637 47.2808H95.4345V47.8013H94.7917C94.5835 47.8013 94.4206 47.738 94.2984 47.6157C94.1762 47.4935 94.1173 47.3215 94.1173 47.1088V47.0409H94.0178C93.9318 47.1903 93.8186 47.3306 93.6783 47.4709C93.5425 47.6112 93.3615 47.7244 93.1397 47.8104C92.9179 47.8964 92.6418 47.9416 92.3069 47.9416M92.3521 47.394C92.8681 47.394 93.2845 47.2401 93.6013 46.9278C93.9182 46.6154 94.0766 46.1764 94.0766 45.6061V45.4839H92.2978C91.9493 45.4839 91.6596 45.5608 91.4288 45.7102C91.1979 45.8596 91.0802 46.0949 91.0802 46.4072C91.0802 46.7195 91.1979 46.964 91.4378 47.136C91.6777 47.308 91.981 47.3894 92.3476 47.3894" fill="white"></path><path d="M103.03 47.9371C102.528 47.9371 102.089 47.833 101.717 47.6203C101.346 47.4075 101.057 47.1133 100.848 46.7331C100.64 46.3529 100.536 45.9139 100.536 45.416V45.2938C100.536 44.7914 100.64 44.3524 100.848 43.9721C101.057 43.5919 101.342 43.2978 101.708 43.0895C102.075 42.8813 102.491 42.7727 102.958 42.7727C103.424 42.7727 103.818 42.8678 104.166 43.0579C104.515 43.248 104.795 43.5241 104.994 43.8816C105.194 44.2392 105.293 44.6692 105.293 45.1625V45.4839H101.134C101.152 46.0949 101.342 46.5657 101.69 46.8961C102.043 47.2265 102.487 47.394 103.021 47.394C103.478 47.394 103.831 47.2899 104.08 47.0817C104.329 46.8734 104.524 46.62 104.66 46.3167L105.203 46.5566C105.103 46.7784 104.963 46.9957 104.786 47.2039C104.61 47.4166 104.379 47.5886 104.098 47.7244C103.818 47.8602 103.46 47.9281 103.026 47.9281M101.152 44.9634H104.687C104.66 44.4338 104.488 44.0265 104.175 43.7413C103.858 43.4562 103.456 43.3159 102.962 43.3159C102.469 43.3159 102.066 43.4607 101.749 43.7413C101.428 44.0265 101.229 44.4338 101.156 44.9634" fill="white"></path><path d="M107.592 47.7968V42.9176H108.176V43.5603H108.298C108.397 43.3792 108.56 43.2118 108.782 43.0534C109.004 42.8949 109.316 42.818 109.728 42.818C110.14 42.818 110.443 42.9085 110.688 43.0896C110.932 43.2706 111.109 43.4879 111.213 43.7413H111.335C111.448 43.4879 111.625 43.2706 111.869 43.0896C112.109 42.9085 112.448 42.818 112.883 42.818C113.218 42.818 113.508 42.8859 113.756 43.0262C114.005 43.162 114.2 43.3566 114.34 43.5965C114.481 43.8409 114.553 44.1261 114.553 44.4565V47.8014H113.951V44.5153C113.951 44.1668 113.847 43.8862 113.634 43.678C113.422 43.4652 113.127 43.3611 112.747 43.3611C112.367 43.3611 112.032 43.4879 111.774 43.7368C111.511 43.9903 111.385 44.3569 111.385 44.8367V47.8014H110.783V44.5153C110.783 44.1668 110.679 43.8862 110.466 43.678C110.253 43.4652 109.959 43.3611 109.579 43.3611C109.199 43.3611 108.864 43.4879 108.606 43.7368C108.343 43.9903 108.216 44.3569 108.216 44.8367V47.8014H107.614L107.592 47.7968Z" fill="white"></path><path d="M120.446 47.7968V42.9176H121.03V43.8228H121.152C121.275 43.5603 121.469 43.3295 121.745 43.1258C122.021 42.9221 122.42 42.818 122.94 42.818C123.293 42.818 123.619 42.8904 123.913 43.0398C124.208 43.1891 124.443 43.4109 124.624 43.7097C124.8 44.0084 124.891 44.3795 124.891 44.8321V47.8059H124.289V44.8729C124.289 44.3388 124.153 43.9495 123.886 43.7187C123.619 43.4833 123.262 43.3657 122.813 43.3657C122.311 43.3657 121.895 43.5331 121.555 43.8635C121.22 44.194 121.053 44.6964 121.053 45.3663V47.8059H120.451L120.446 47.7968Z" fill="white"></path><path d="M129.196 47.8965C128.847 47.8965 128.526 47.824 128.227 47.6747C127.929 47.5298 127.693 47.3035 127.512 47.0048C127.336 46.7061 127.245 46.3349 127.245 45.8868V42.9131H127.847V45.8461C127.847 46.3756 127.983 46.7558 128.25 46.9957C128.517 47.2311 128.875 47.3533 129.323 47.3533C129.825 47.3533 130.241 47.1858 130.581 46.8554C130.916 46.525 131.083 46.0226 131.083 45.3527V42.9131H131.685V47.7923H131.101V46.8871H130.979C130.857 47.1496 130.662 47.3805 130.386 47.5841C130.11 47.7878 129.712 47.8919 129.191 47.8919" fill="white"></path><path d="M135.583 47.7969L133.754 42.9176H134.397L136.008 47.3352H136.126L137.732 42.9176H138.375L136.547 47.7969H135.583Z" fill="white"></path><path d="M142.463 47.9371C141.96 47.9371 141.521 47.833 141.15 47.6203C140.779 47.4075 140.489 47.1133 140.281 46.7331C140.073 46.3529 139.969 45.9139 139.969 45.416V45.2938C139.969 44.7914 140.073 44.3524 140.281 43.9721C140.489 43.5919 140.774 43.2978 141.141 43.0895C141.508 42.8768 141.924 42.7727 142.39 42.7727C142.856 42.7727 143.25 42.8678 143.599 43.0579C143.947 43.248 144.228 43.5241 144.427 43.8816C144.626 44.2392 144.726 44.6692 144.726 45.1625V45.4839H140.566C140.584 46.0949 140.774 46.5657 141.123 46.8961C141.476 47.2265 141.92 47.394 142.454 47.394C142.911 47.394 143.264 47.2899 143.513 47.0817C143.762 46.8734 143.956 46.62 144.092 46.3167L144.635 46.5566C144.536 46.7784 144.395 46.9957 144.219 47.2039C144.042 47.4166 143.812 47.5886 143.531 47.7244C143.25 47.8602 142.893 47.9281 142.458 47.9281M140.584 44.9634H144.119C144.092 44.4338 143.92 44.0265 143.608 43.7413C143.291 43.4562 142.888 43.3159 142.395 43.3159C141.901 43.3159 141.499 43.4607 141.182 43.7413C140.86 44.0265 140.661 44.4338 140.589 44.9634" fill="white"></path><path d="M147.025 47.7968V42.9176H147.609V43.5603H147.731C147.831 43.3792 147.994 43.2118 148.216 43.0534C148.438 42.8949 148.75 42.818 149.162 42.818C149.574 42.818 149.877 42.9085 150.121 43.0896C150.366 43.2706 150.542 43.4879 150.646 43.7413H150.769C150.882 43.4879 151.058 43.2706 151.303 43.0896C151.543 42.9085 151.882 42.818 152.317 42.818C152.651 42.818 152.941 42.8859 153.19 43.0262C153.439 43.162 153.634 43.3566 153.774 43.5965C153.914 43.8409 153.987 44.1261 153.987 44.4565V47.8014H153.385V44.5153C153.385 44.1668 153.281 43.8862 153.068 43.678C152.855 43.4652 152.561 43.3611 152.181 43.3611C151.801 43.3611 151.466 43.4879 151.208 43.7368C150.945 43.9903 150.818 44.3569 150.818 44.8367V47.8014H150.216V44.5153C150.216 44.1668 150.112 43.8862 149.9 43.678C149.687 43.4652 149.393 43.3611 149.012 43.3611C148.632 43.3611 148.297 43.4879 148.039 43.7368C147.777 43.9903 147.65 44.3569 147.65 44.8367V47.8014H147.048L147.025 47.7968Z" fill="white"></path><path d="M17.8102 24.3963C17.3983 24.686 16.9412 24.9757 16.4026 25.2246C15.5335 25.6772 14.2526 26.0529 12.6413 26.0529C8.67179 26.0529 5.61207 22.9524 5.61207 19.4356C5.61207 15.9187 8.67179 12.8183 12.6413 12.8183C14.1304 12.8183 15.2891 13.1487 16.2396 13.5198C16.7375 13.728 17.1901 13.9724 17.6065 14.2621L19.675 10.5416C19.0549 10.1297 18.3941 9.75402 17.6473 9.38287C16.3256 8.84425 14.5061 8.26489 12.2294 8.26489C4.99198 8.26489 0.03125 13.2256 0.03125 19.4311C0.03125 25.6365 4.99198 30.5927 12.2294 30.5927C14.5875 30.5927 16.3664 30.0133 17.8102 29.3525C18.5978 28.9814 19.2586 28.565 19.8787 28.1123L17.8102 24.3918V24.3963Z" fill="white"></path><path fill-rule="evenodd" clip-rule="evenodd" d="M48.6154 0.82373H43.2383V11.6188C44.7274 13.8547 45.5964 16.5433 45.5964 19.431C45.5964 22.3187 44.7274 25.0028 43.2383 27.2432V28.7369C44.148 29.108 45.0985 29.3977 46.0898 29.6466C47.8686 30.1445 50.1815 30.5972 52.5396 30.5972C59.7771 30.5972 64.7378 25.6364 64.7378 19.431C64.7378 13.2255 59.7771 8.26482 52.5396 8.26482C51.5891 8.26482 50.6794 8.38703 49.8918 8.5545C49.4347 8.6767 49.0228 8.76271 48.6109 8.88491V0.82373H48.6154ZM52.5442 26.0483C51.5937 26.0483 50.6839 25.9261 49.8963 25.7179C49.4392 25.6364 49.0273 25.5504 48.6154 25.4282V13.4383C49.0273 13.3161 49.4437 13.2301 49.8963 13.1079C50.5979 12.9857 51.5891 12.8182 52.5442 12.8182C56.5137 12.8182 59.1615 15.466 59.1615 19.4355C59.1615 23.405 56.5137 26.0528 52.5442 26.0528" fill="white"></path><path d="M83.0249 10.3786C82.5678 10.0075 81.993 9.63632 81.3276 9.30139C80.2096 8.8035 78.5983 8.26941 76.4076 8.26941C74.0902 8.26941 71.9855 8.6813 70.166 9.17918C69.134 9.46886 68.1835 9.75854 67.3145 10.1297V29.7689H72.6916V13.4383C73.022 13.3161 73.3931 13.2301 73.7688 13.1079C74.4704 12.9857 75.3802 12.8183 76.4167 12.8183C79.5986 12.8183 81.1737 14.3889 81.1737 17.5753V29.7734H86.5509V17.5753C86.5509 16.5433 86.4286 15.7558 86.2612 15.1357C86.1797 14.7645 86.0982 14.4748 85.9715 14.2259C86.3019 13.9362 86.6731 13.728 87.1302 13.5243C87.8318 13.1939 88.909 12.8228 90.2714 12.8228C93.4533 12.8228 95.0239 14.3934 95.0239 17.5798V29.778H100.401V17.5798C100.401 11.7501 96.9295 8.27847 90.2714 8.27847C88.1622 8.27847 86.5508 8.77635 85.2247 9.31045C84.4824 9.64086 83.817 10.012 83.2377 10.3877H83.0295L83.0249 10.3786Z" fill="white"></path><path d="M112.883 26.0484C109.366 26.0484 108.126 24.8082 108.126 23.3598C108.126 21.9114 109.366 20.6712 112.883 20.6712C114.164 20.6712 115.241 20.7527 116.192 20.8794C116.73 20.9202 117.183 21.0016 117.64 21.0876V25.4283C117.183 25.5505 116.73 25.6365 116.192 25.718C115.323 25.8854 114.164 26.0484 112.883 26.0484ZM112.883 8.26941C110.403 8.26941 108.543 8.76729 107.094 9.38738C106.307 9.75853 105.605 10.1297 105.026 10.5461L107.094 14.2666C107.592 13.977 108.131 13.728 108.746 13.5243C109.778 13.1939 111.227 12.8228 112.883 12.8228C116.192 12.8228 117.64 14.2304 117.64 16.5433C117.228 16.4619 116.771 16.3759 116.278 16.3351C115.409 16.2129 114.209 16.1269 112.888 16.1269C105.65 16.1269 102.55 19.2274 102.55 23.3643C102.55 27.5013 105.65 30.6018 112.888 30.6018C115.576 30.6018 117.975 30.2713 119.958 29.9002C121.076 29.692 122.067 29.443 123.017 29.1579V17.3716C123.017 11.7501 119.541 8.27394 112.888 8.27394" fill="white"></path><path d="M126.413 3.10046C126.413 4.75253 127.861 6.20092 129.722 6.20092C131.582 6.20092 133.03 4.75253 133.03 3.10046C133.03 1.44839 131.582 0 129.722 0C127.861 0 126.413 1.44839 126.413 3.10046ZM127.033 29.7689H132.41V9.09316H127.033V29.7689Z" fill="white"></path><path d="M153.996 23.5681C153.996 16.127 141.589 18.191 141.589 15.0905C141.589 13.8096 142.621 12.8184 145.31 12.8184C147.089 12.8184 148.492 13.2303 149.61 13.7281C150.23 14.0178 150.809 14.3075 151.307 14.6786L153.376 10.9581C152.756 10.4602 152.009 10.0076 151.226 9.59571C149.777 8.93488 147.795 8.27405 145.314 8.27405C139.358 8.27405 136.013 11.6234 136.013 15.0951C136.013 22.5361 148.415 20.4722 148.415 23.5727C148.415 24.7721 147.215 26.053 143.454 26.053C141.594 26.053 140.064 25.5551 138.865 25.021C138.204 24.7314 137.584 24.3602 137.045 23.9891L134.977 27.7096C135.678 28.2482 136.506 28.7416 137.375 29.158C138.865 29.8596 140.974 30.6064 143.454 30.6064C150.483 30.6064 154 27.0895 154 23.5772" fill="white"></path><path d="M19.7109 19.3587C19.7109 20.1462 19.7924 20.9157 19.9508 21.6534C20.064 21.7938 20.1817 21.9341 20.3039 22.0744C21.4354 23.3734 22.8069 24.4597 24.3503 25.2699C24.6174 25.0934 24.9613 25.0255 25.2963 25.116L27.7088 25.7542C28.3334 25.9217 28.7091 26.5644 28.5416 27.189C28.3741 27.8136 27.7314 28.1893 27.1068 28.0218L24.6943 27.3791C24.1964 27.2478 23.8524 26.8088 23.8253 26.3155C22.7616 25.7587 21.7794 25.0843 20.8832 24.3058C22.7254 27.9449 26.5681 30.4207 31.1939 30.4207C36.4081 30.4207 40.5451 27.352 42.0568 23.034C41.2829 23.034 40.5225 23.0339 39.7485 23.0385H39.3638L39.4407 22.6673C39.8797 20.5989 39.7621 18.4353 39.0877 16.4257C38.0874 13.452 35.9284 10.9716 33.1176 9.57752C31.9362 8.98911 30.6372 8.59533 29.2612 8.42786C23.7166 9.28784 19.7109 13.8231 19.7109 19.3496M37.1369 19.3587C37.1369 23.2965 34.4709 25.9217 31.1894 25.9217C27.9079 25.9217 25.2465 23.2965 25.2465 19.3587C25.2465 15.4209 27.9124 12.8002 31.1894 12.8002C34.4664 12.8002 37.1369 15.4254 37.1369 19.3587Z" fill="white"></path><path d="M34.2139 8.64954C38.6541 9.74941 41.8632 13.2482 42.5376 17.6205H42.2026C42.2026 17.6205 42.1664 17.6205 42.1483 17.6205H41.4649H40.7814C40.3243 15.3347 39.2742 13.2436 37.785 11.5372C36.7757 10.3831 35.5717 9.40089 34.2139 8.64954Z" fill="#636569"></path><path fill-rule="evenodd" clip-rule="evenodd" d="M42.2622 18.5574H41.3117H40.583C40.746 19.3178 40.8093 20.1189 40.755 20.9336C40.7278 21.3365 40.6735 21.7303 40.5921 22.115H41.1126H41.3208H42.2713C43.6201 22.1105 43.5069 18.5574 42.2622 18.5619" fill="#636569"></path></svg>